<svg enable-background="new 0 0 32 32" height="512" viewBox="0 0 32 32" width="512" xmlns="http://www.w3.org/2000/svg"><path d="m26.042 32.042h-20c-3.314 0-6-2.686-6-6v-20c0-3.314 2.686-6 6-6h20c3.314 0 6 2.686 6 6v20c0 3.313-2.687 6-6 6z" fill="#f5e6fe"/><path d="m22 8h-12c-1.105 0-2 .895-2 2v12c0 1.105.895 2 2 2h12c1.105 0 2-.895 2-2v-12c0-1.105-.895-2-2-2z" fill="#be63f9"/><path d="m19.138 17.805-2.667 2.667c-.26.26-.682.26-.943 0l-2.667-2.667c-.191-.191-.248-.477-.145-.727.103-.249.346-.411.616-.411h2v-4.667c0-.368.299-.667.667-.667s.667.299.667.667v4.667h2c.27 0 .513.162.616.411.104.249.047.536-.144.727z" fill="#d9a4fc"/></svg>