<svg enable-background="new 0 0 32 32" height="512" viewBox="0 0 32 32" width="512" xmlns="http://www.w3.org/2000/svg"><path d="m26.042 32.042h-20c-3.314 0-6-2.686-6-6v-20c0-3.314 2.686-6 6-6h20c3.314 0 6 2.686 6 6v20c0 3.313-2.687 6-6 6z" fill="#ffe6e2"/><circle cx="16" cy="16" fill="#fc573b" r="8"/><path d="m19.283 14.922c-.103.249-.346.411-.616.411h-2v4.667c0 .368-.299.667-.667.667s-.667-.299-.667-.667v-4.667h-2c-.27 0-.513-.162-.616-.411s-.046-.536.145-.727l2.667-2.667c.26-.26.682-.26.943 0l2.667 2.667c.19.191.247.478.144.727z" fill="#fd907e"/></svg>