<svg enable-background="new 0 0 32 32" height="512" viewBox="0 0 32 32" width="512" xmlns="http://www.w3.org/2000/svg"><path d="m26 32h-20c-3.314 0-6-2.686-6-6v-20c0-3.314 2.686-6 6-6h20c3.314 0 6 2.686 6 6v20c0 3.314-2.686 6-6 6z" fill="#fff9dd"/><path d="m16 8c-4.411 0-8 3.589-8 8s3.589 8 8 8 8-3.589 8-8-3.589-8-8-8zm4.055 6.305-4.333 4.333c-.13.13-.301.195-.471.195-.171 0-.341-.065-.471-.195l-2.167-2.167c-.26-.26-.26-.682 0-.943s.682-.26.943 0l1.695 1.695 3.862-3.862c.26-.26.682-.26.943 0s.259.683-.001.944z" fill="#ffd200"/></svg>