<svg enable-background="new 0 0 32 32" height="512" viewBox="0 0 32 32" width="512" xmlns="http://www.w3.org/2000/svg"><path d="m26 32h-20c-3.314 0-6-2.686-6-6v-20c0-3.314 2.686-6 6-6h20c3.314 0 6 2.686 6 6v20c0 3.314-2.686 6-6 6z" fill="#fff9dd"/><path d="m24 9.833c0-1.011-.822-1.833-1.833-1.833h-12.334c-1.011 0-1.833.822-1.833 1.833v12.333c0 1.012.822 1.834 1.833 1.834h12.333c1.012 0 1.834-.822 1.834-1.833zm-3.945 3.529c.26.26.26.682 0 .943l-4.333 4.333c-.13.13-.301.195-.471.195-.171 0-.341-.065-.471-.195l-2.167-2.167c-.26-.26-.26-.682 0-.943s.682-.26.943 0l1.695 1.695 3.862-3.862c.259-.259.681-.259.942.001z" fill="#ffd200"/></svg>