<svg enable-background="new 0 0 32 32" height="512" viewBox="0 0 32 32" width="512" xmlns="http://www.w3.org/2000/svg"><path d="m26 32h-20c-3.314 0-6-2.686-6-6v-20c0-3.314 2.686-6 6-6h20c3.314 0 6 2.686 6 6v20c0 3.314-2.686 6-6 6z" fill="#fff9dd"/><path d="m17.581 19.581c-.378.378-.88.586-1.414.586s-1.036-.208-1.414-.586l-2.833-2.833c-.378-.378-.586-.88-.586-1.414s.208-1.036.586-1.414.88-.586 1.414-.586 1.036.208 1.414.586l1.419 1.419 3.918-3.918c-1.28-1.091-2.937-1.754-4.752-1.754-4.05 0-7.333 3.283-7.333 7.333s3.283 7.333 7.333 7.333 7.334-3.283 7.334-7.333c0-.758-.115-1.489-.329-2.177z" fill="#ffd200"/><path d="m16.167 18.833c-.171 0-.341-.065-.471-.195l-2.833-2.833c-.26-.26-.26-.682 0-.943s.682-.26.943 0l2.362 2.362 6.695-6.695c.26-.26.682-.26.943 0s.26.682 0 .943l-7.167 7.167c-.131.129-.302.194-.472.194z" fill="#ffe777"/></svg>