<svg enable-background="new 0 0 32 32" height="512" viewBox="0 0 32 32" width="512" xmlns="http://www.w3.org/2000/svg"><path d="m26 32h-20c-3.314 0-6-2.686-6-6v-20c0-3.314 2.686-6 6-6h20c3.314 0 6 2.686 6 6v20c0 3.314-2.686 6-6 6z" fill="#e3f8fa"/><path d="m21.801 16.57-.358-1.017-3.862 3.862c-.378.377-.881.585-1.414.585-.534 0-1.036-.208-1.414-.586l-2.833-2.833c-.378-.378-.586-.88-.586-1.414s.208-1.036.586-1.414.88-.586 1.414-.586 1.036.208 1.414.586l1.419 1.419 3.803-3.803-.256-.727-.118-.705c-.075-.452-.372-.827-.796-1.003-.425-.177-.9-.122-1.273.146l-1.853 1.341-1.873-1.344c-.376-.265-.852-.318-1.275-.141-.42.176-.715.55-.789.999l-.363 2.258-2.271.377c-.452.074-.826.372-1.002.796s-.122.9.146 1.273l1.341 1.853-1.344 1.873c-.265.376-.318.853-.141 1.275.176.42.55.715.999.789l2.258.363.378 2.271c.074.451.369.825.789 1.001.423.177.9.124 1.279-.144l1.853-1.341 1.868 1.341c.229.163.495.247.765.247.171 0 .343-.034.508-.102.424-.176.721-.55.796-1.001l.363-2.258 2.271-.377c.451-.074.824-.369 1.001-.789.177-.422.124-.899-.144-1.279z" fill="#26c6da"/><path d="m16.167 18.667c-.171 0-.341-.065-.471-.195l-2.833-2.833c-.26-.26-.26-.682 0-.943s.682-.26.943 0l2.362 2.362 6.695-6.695c.26-.26.682-.26.943 0s.26.682 0 .943l-7.167 7.167c-.131.128-.302.194-.472.194z" fill="#8ce1eb"/></svg>