<svg enable-background="new 0 0 32 32" height="512" viewBox="0 0 32 32" width="512" xmlns="http://www.w3.org/2000/svg"><path d="m26 32h-20c-3.314 0-6-2.686-6-6v-20c0-3.314 2.686-6 6-6h20c3.314 0 6 2.686 6 6v20c0 3.314-2.686 6-6 6z" fill="#fff9dd"/><path d="m17.167 14.667c-.644 0-1.167.522-1.167 1.167v7c0 .644.522 1.166 1.167 1.166h5.667c.644 0 1.166-.522 1.166-1.167v-6.967c0-.663-.537-1.2-1.2-1.2h-5.633zm4.25 6.666h-3c-.276 0-.5-.224-.5-.5s.224-.5.5-.5h3c.276 0 .5.224.5.5s-.224.5-.5.5zm0-2h-3c-.276 0-.5-.224-.5-.5s.224-.5.5-.5h3c.276 0 .5.224.5.5s-.224.5-.5.5z" fill="#ffe777"/><path d="m17.5 10h-.833v-.167c0-.276-.224-.5-.5-.5h-.736c-.219-.768-.926-1.333-1.764-1.333s-1.546.565-1.764 1.333h-.736c-.276 0-.5.224-.5.5v.167h-.834c-1.011 0-1.833.822-1.833 1.833v8.333c0 1.012.822 1.834 1.833 1.834h5.167v-6.167c0-1.195.972-2.167 2.167-2.167h2.167v-1.833c-.001-1.011-.823-1.833-1.834-1.833zm-5.833.333h.667c.276 0 .5-.224.5-.5 0-.46.374-.833.833-.833.46 0 .833.374.833.833 0 .276.224.5.5.5h.667v.833c0 .092-.075.167-.167.167h-3.667c-.092 0-.167-.075-.167-.167v-.833z" fill="#ffd200"/></svg>