<svg enable-background="new 0 0 32 32" height="512" viewBox="0 0 32 32" width="512" xmlns="http://www.w3.org/2000/svg"><path d="m26.042 32.042h-20c-3.314 0-6-2.686-6-6v-20c0-3.314 2.686-6 6-6h20c3.314 0 6 2.686 6 6v20c0 3.313-2.687 6-6 6z" fill="#fff9dd"/><circle cx="16" cy="16" fill="#ffd200" r="8"/><g fill="#ffe777"><path d="m12.581 18.744-1.155.667c-.105.061-.219.089-.333.089-.23 0-.454-.119-.578-.333-.184-.319-.075-.727.244-.911l1.155-.667c.317-.184.726-.075.911.244.184.319.075.727-.244.911z"/><path d="m12.825 14.167c-.124.214-.348.333-.578.333-.113 0-.228-.029-.333-.089l-1.155-.667c-.319-.184-.428-.592-.244-.911s.592-.428.911-.244l1.155.667c.319.184.428.592.244.911z"/><path d="m16.667 21.667c0 .368-.298.667-.667.667-.368 0-.667-.299-.667-.667v-1.333c0-.368.298-.667.667-.667.368 0 .667.299.667.667z"/><path d="m16.667 11.667c0 .368-.298.667-.667.667-.368 0-.667-.299-.667-.667v-1.333c0-.368.298-.667.667-.667.368 0 .667.299.667.667z"/><path d="m21.485 19.167c-.124.214-.348.333-.578.333-.113 0-.228-.029-.333-.089l-1.155-.667c-.319-.184-.428-.592-.244-.911s.592-.428.911-.244l1.155.667c.319.184.428.592.244.911z"/><path d="m21.241 13.744-1.155.667c-.105.061-.219.089-.333.089-.23 0-.454-.119-.578-.333-.184-.319-.075-.727.244-.911l1.155-.667c.318-.184.726-.075.911.244.184.319.075.727-.244.911z"/></g></svg>