<svg enable-background="new 0 0 32 32" height="512" viewBox="0 0 32 32" width="512" xmlns="http://www.w3.org/2000/svg"><path d="m26 32h-20c-3.314 0-6-2.686-6-6v-20c0-3.314 2.686-6 6-6h20c3.314 0 6 2.686 6 6v20c0 3.314-2.686 6-6 6z" fill="#fff9dd"/><path d="m13.833 8c-1.012 0-1.833.821-1.833 1.833v9c0 1.013.821 1.833 1.833 1.833h7.667c1.013 0 1.833-.821 1.833-1.833v-8.833c0-1.105-.895-2-2-2zm6.334 9.667h-5c-.276 0-.5-.224-.5-.5s.224-.5.5-.5h5c.276 0 .5.224.5.5s-.224.5-.5.5zm0-2h-5c-.276 0-.5-.224-.5-.5s.224-.5.5-.5h5c.276 0 .5.224.5.5s-.224.5-.5.5zm0-2h-5c-.276 0-.5-.224-.5-.5s.224-.5.5-.5h5c.276 0 .5.224.5.5s-.224.5-.5.5z" fill="#ffd200"/><path d="m13.833 21.667c-1.563 0-2.833-1.271-2.833-2.833v-9c0-.057.014-.11.017-.167h-.517c-1.011 0-1.833.822-1.833 1.833v10.667c0 1.011.822 1.833 1.833 1.833h8c1.011 0 1.833-.822 1.833-1.833v-.5z" fill="#ffe777"/></svg>