<svg enable-background="new 0 0 32 32" height="512" viewBox="0 0 32 32" width="512" xmlns="http://www.w3.org/2000/svg"><path d="m26 32h-20c-3.314 0-6-2.686-6-6v-20c0-3.314 2.686-6 6-6h20c3.314 0 6 2.686 6 6v20c0 3.314-2.686 6-6 6z" fill="#e3f8fa"/><path d="m20.667 18.667c-1.117 0-2.073.692-2.469 1.669l-6.761-12.08c-.074-.133-.204-.224-.355-.249-.147-.026-.303.02-.416.121-1.037.934-1.112 2.533-.195 4.172l.331.594c1.019 1.837 2.414 4.352 3.378 5.156.93.774 1.868.983 2.171 1.033l1.988 3.551c.008.014.023.02.033.033.462.793 1.312 1.333 2.295 1.333 1.471 0 2.667-1.196 2.667-2.667s-1.197-2.666-2.667-2.666zm0 4c-.735 0-1.333-.598-1.333-1.333s.598-1.334 1.333-1.334 1.333.598 1.333 1.333-.598 1.334-1.333 1.334z" fill="#8ce1eb"/><path d="m8.667 21.333c0 1.47 1.196 2.667 2.667 2.667.983 0 1.833-.54 2.296-1.333.009-.013.025-.019.033-.033l1.988-3.551c.303-.049 1.242-.258 2.171-1.033.964-.803 2.359-3.319 3.378-5.156l.331-.594c.917-1.64.842-3.239-.195-4.172-.113-.102-.269-.147-.416-.121-.15.025-.281.116-.355.249l-6.761 12.08c-.396-.977-1.352-1.669-2.469-1.669-1.472 0-2.668 1.196-2.668 2.666zm1.333 0c0-.735.598-1.333 1.333-1.333s1.333.598 1.333 1.333-.598 1.333-1.333 1.333c-.735.001-1.333-.597-1.333-1.333z" fill="#26c6da"/></svg>