<svg enable-background="new 0 0 32 32" height="512" viewBox="0 0 32 32" width="512" xmlns="http://www.w3.org/2000/svg"><path d="m26 32h-20c-3.314 0-6-2.686-6-6v-20c0-3.314 2.686-6 6-6h20c3.314 0 6 2.686 6 6v20c0 3.314-2.686 6-6 6z" fill="#fff9dd"/><path d="m14.167 8h-5c-.644 0-1.167.523-1.167 1.167v3c0 .643.523 1.167 1.167 1.167h5c.643 0 1.167-.523 1.167-1.167v-3c-.001-.644-.524-1.167-1.167-1.167z" fill="#ffe777"/><path d="m14.167 14.667h-5c-.644 0-1.167.523-1.167 1.166v7c0 .644.523 1.167 1.167 1.167h5c.643 0 1.167-.523 1.167-1.167v-7c-.001-.643-.524-1.166-1.167-1.166z" fill="#ffd200"/><path d="m22.833 18.667h-5c-.643 0-1.167.523-1.167 1.167v3c0 .643.523 1.167 1.167 1.167h5c.644-.001 1.167-.524 1.167-1.168v-3c0-.643-.523-1.166-1.167-1.166z" fill="#ffe777"/><path d="m22.833 8h-5c-.643 0-1.167.523-1.167 1.167v7c0 .643.523 1.167 1.167 1.167h5c.643 0 1.167-.523 1.167-1.167v-7c0-.644-.523-1.167-1.167-1.167z" fill="#ffd200"/></svg>