<svg enable-background="new 0 0 32 32" height="512" viewBox="0 0 32 32" width="512" xmlns="http://www.w3.org/2000/svg"><path d="m26 32h-20c-3.314 0-6-2.686-6-6v-20c0-3.314 2.686-6 6-6h20c3.314 0 6 2.686 6 6v20c0 3.314-2.686 6-6 6z" fill="#f5e6fe"/><path d="m22.167 8h-12.334c-1.011 0-1.833.822-1.833 1.833v12.333c0 1.012.822 1.834 1.833 1.834h12.333c1.012 0 1.834-.822 1.834-1.833v-12.334c0-1.011-.822-1.833-1.833-1.833z" fill="#be63f9"/><g fill="#d9a4fc"><path d="m14.167 10h-3c-.644 0-1.167.523-1.167 1.167v1.667c0 .643.523 1.166 1.167 1.166h3c.643 0 1.167-.523 1.167-1.167v-1.667c-.001-.643-.524-1.166-1.167-1.166z"/><path d="m14.167 15.333h-3c-.644 0-1.167.524-1.167 1.167v4.333c0 .644.523 1.167 1.167 1.167h3c.643 0 1.167-.523 1.167-1.167v-4.333c-.001-.643-.524-1.167-1.167-1.167z"/><path d="m20.833 10h-3c-.643 0-1.167.523-1.167 1.167v4.333c0 .643.523 1.167 1.167 1.167h3c.643 0 1.167-.523 1.167-1.167v-4.333c0-.644-.523-1.167-1.167-1.167z"/><path d="m20.833 18h-3c-.643 0-1.167.523-1.167 1.167v1.667c0 .643.523 1.167 1.167 1.167h3c.644-.001 1.167-.524 1.167-1.168v-1.667c0-.643-.523-1.166-1.167-1.166z"/></g></svg>