<svg enable-background="new 0 0 32 32" height="512" viewBox="0 0 32 32" width="512" xmlns="http://www.w3.org/2000/svg"><path d="m26 32h-20c-3.314 0-6-2.686-6-6v-20c0-3.314 2.686-6 6-6h20c3.314 0 6 2.686 6 6v20c0 3.314-2.686 6-6 6z" fill="#ffe6e2"/><path d="m23.516 15.058-2.939-4.833c-.33-.543-.93-.881-1.566-.881h-6.001c-.636 0-1.236.338-1.566.881l-2.939 4.833c-.357.588-.357 1.317 0 1.905l2.939 4.833c.33.543.93.881 1.566.881h6.001c.636 0 1.236-.338 1.566-.881l2.939-4.833c.358-.588.358-1.318 0-1.905zm-4.566 2.949c.26.26.26.682 0 .943-.13.13-.301.195-.471.195s-.341-.065-.471-.195l-2.004-2.004-2.004 2.004c-.13.13-.301.195-.471.195-.171 0-.341-.065-.471-.195-.26-.26-.26-.682 0-.943l2.004-2.004-2.005-2.003c-.26-.26-.26-.682 0-.943.26-.26.682-.26.943 0l2.004 2.004 2.004-2.004c.26-.26.682-.26.943 0 .26.26.26.682 0 .943l-2.004 2.004z" fill="#fc573b"/></svg>