<svg enable-background="new 0 0 32 32" height="512" viewBox="0 0 32 32" width="512" xmlns="http://www.w3.org/2000/svg"><path d="m26 32h-20c-3.314 0-6-2.686-6-6v-20c0-3.314 2.686-6 6-6h20c3.314 0 6 2.686 6 6v20c0 3.314-2.686 6-6 6z" fill="#e3f8fa"/><path d="m22 24h-12c-1.103 0-2-.897-2-2v-2.667c0-.368.299-.667.667-.667s.667.299.667.667v2.667c0 .368.299.667.667.667h12c.368 0 .667-.299.667-.667v-2.667c0-.368.299-.667.667-.667s.665.299.665.667v2.667c0 1.103-.897 2-2 2z" fill="#8ce1eb"/><path d="m19.138 16.471-2.667 2.667c-.26.26-.682.26-.943 0l-2.667-2.667c-.191-.191-.248-.477-.145-.727.103-.249.346-.411.616-.411h2v-6.666c.001-.369.3-.667.668-.667s.667.299.667.667v6.667h2c.27 0 .513.162.616.411s.046.536-.145.726z" fill="#26c6da"/></svg>