<svg enable-background="new 0 0 32 32" height="512" viewBox="0 0 32 32" width="512" xmlns="http://www.w3.org/2000/svg"><path d="m26 32h-20c-3.314 0-6-2.686-6-6v-20c0-3.314 2.686-6 6-6h20c3.314 0 6 2.686 6 6v20c0 3.314-2.686 6-6 6z" fill="#fff9dd"/><path d="m23.854 8.147c-.104-.103-.245-.154-.394-.145-3.305.269-6.171 1.26-8.518 2.945-.152.109-.23.294-.203.479.146.994-.283 2.168-.711 3.042-.175-.496-.433-.951-.678-1.319-.087-.129-.228-.211-.383-.221-.155-.009-.306.053-.409.169-2.006 2.284-2.67 4.685-2.103 7.506l-2.259 2.259c-.26.26-.26.682 0 .943.13.13.3.195.471.195s.341-.065.471-.195l5.724-5.724c.26-.26.682-.26.943 0 .26.26.26.682 0 .943l-2.719 2.719c.051.001.105.01.155.01 2.303 0 4.351-.959 6.316-2.929 2.787-2.787 4.074-5.766 4.441-10.283.012-.147-.041-.291-.144-.394z" fill="#ffd200"/></svg>