<svg enable-background="new 0 0 32 32" height="512" viewBox="0 0 32 32" width="512" xmlns="http://www.w3.org/2000/svg"><path d="m26 32h-20c-3.314 0-6-2.686-6-6v-20c0-3.314 2.686-6 6-6h20c3.314 0 6 2.686 6 6v20c0 3.314-2.686 6-6 6z" fill="#fff9dd"/><path d="m22.833 8h-13.666c-.644 0-1.167.523-1.167 1.167v1.543c0 .326.137.639.378.86l5.352 4.902c.172.158.27.382.27.615v6.413c0 .184.102.354.264.441.074.04.155.059.236.059.097 0 .194-.028.277-.084l2.703-1.802c.326-.217.52-.58.52-.971v-4.056c0-.233.098-.457.271-.615l5.352-4.903c.24-.22.377-.534.377-.859v-1.543c0-.644-.523-1.167-1.167-1.167z" fill="#ffd200"/></svg>