<svg enable-background="new 0 0 32 32" height="512" viewBox="0 0 32 32" width="512" xmlns="http://www.w3.org/2000/svg"><path d="m26 32h-20c-3.314 0-6-2.686-6-6v-20c0-3.314 2.686-6 6-6h20c3.314 0 6 2.686 6 6v20c0 3.314-2.686 6-6 6z" fill="#ffe6e2"/><path d="m11.333 16v7.273c0 .4-.3.727-.667.727-.366 0-.666-.327-.666-.727v-7.273z" fill="#fd907e"/><path d="m22 9.167v6.333c0 .642-.525 1.167-1.167 1.167h-10.166c-.369 0-.667-.299-.667-.667v-7.333c0-.367.3-.667.667-.667h10.167c.641 0 1.166.525 1.166 1.167z" fill="#fc573b"/></svg>