<svg enable-background="new 0 0 32 32" height="512" viewBox="0 0 32 32" width="512" xmlns="http://www.w3.org/2000/svg"><path d="m26 32h-20c-3.314 0-6-2.686-6-6v-20c0-3.314 2.686-6 6-6h20c3.314 0 6 2.686 6 6v20c0 3.314-2.686 6-6 6z" fill="#ffe6e2"/><path d="m16 9.333c-3.726 0-5.968.605-6.562 1 .594.395 2.836 1 6.562 1s5.968-.605 6.562-1c-.594-.395-2.836-1-6.562-1z" fill="#fd907e"/><path d="m16 8c-1.336 0-8 .113-8 2.333v2.212c0 .595.262 1.156.72 1.537l5.28 4.397v4.854c0 .253.143.483.368.596.094.047.197.07.298.07.142 0 .283-.045.4-.133l2.399-1.799c.335-.25.535-.649.535-1.067v-2.521l5.28-4.397c.458-.381.72-.941.72-1.537v-2.212c0-2.22-6.664-2.333-8-2.333zm-6.562 2.333c.594-.395 2.836-1 6.562-1s5.968.605 6.562 1c-.594.395-2.836 1-6.562 1s-5.968-.605-6.562-1z" fill="#fc573b"/></svg>