<svg enable-background="new 0 0 32 32" height="512" viewBox="0 0 32 32" width="512" xmlns="http://www.w3.org/2000/svg"><path d="m26 32h-20c-3.314 0-6-2.686-6-6v-20c0-3.314 2.686-6 6-6h20c3.314 0 6 2.686 6 6v20c0 3.314-2.686 6-6 6z" fill="#f5e6fe"/><path d="m11.375 15.5v7.773c0 .4-.3.727-.667.727s-.667-.327-.667-.727v-7.773z" fill="#d9a4fc"/><path d="m21.882 15.174-3.612-2.714c-.023-.018-.062-.059-.062-.127s.039-.109.053-.12l3.62-2.72c.207-.156.326-.396.326-.66 0-.46-.374-.833-.833-.833h-10.666c-.368 0-.667.298-.667.667v7.333c0 .368.298.667.667.667h.667 10c.46 0 .833-.374.833-.833 0-.264-.119-.504-.326-.66z" fill="#be63f9"/></svg>