<svg enable-background="new 0 0 32 32" height="512" viewBox="0 0 32 32" width="512" xmlns="http://www.w3.org/2000/svg"><path d="m26.042 32.042h-20c-3.314 0-6-2.686-6-6v-20c0-3.314 2.686-6 6-6h20c3.314 0 6 2.686 6 6v20c0 3.313-2.687 6-6 6z" fill="#ffe6e2"/><path d="m10.673 15.333c.296 0 .555-.192.643-.477l1.072-3.575c.181-.571.693-.949 1.279-.949.585 0 1.098.377 1.275.939l2.723 9.063 1.706-3.82c.319-.717 1.037-1.182 1.829-1.182h2.8v-5.332c0-1.103-.897-2-2-2h-12c-1.103 0-2 .897-2 2v5.333z" fill="#fd907e"/><path d="m21.2 16.667c-.266 0-.505.154-.611.391l-1.707 3.821c-.204.476-.683.788-1.215.788-.585 0-1.098-.377-1.275-.939l-2.723-9.063-1.076 3.58c-.264.853-1.034 1.422-1.919 1.422h-2.674v5.333c0 1.103.897 2 2 2h12c1.103 0 2-.897 2-2v-5.333z" fill="#fc573b"/></svg>