<svg enable-background="new 0 0 32 32" height="512" viewBox="0 0 32 32" width="512" xmlns="http://www.w3.org/2000/svg"><path d="m26 32h-20c-3.314 0-6-2.686-6-6v-20c0-3.314 2.686-6 6-6h20c3.314 0 6 2.686 6 6v20c0 3.314-2.686 6-6 6z" fill="#fff9dd"/><circle cx="16" cy="16" fill="#ffd200" r="8"/><g fill="#ffe777"><path d="m18.667 19.333h-5.333c-.368 0-.667-.299-.667-.667s.298-.666.666-.666h5.333c.368 0 .667.299.667.667s-.298.666-.666.666z"/><path d="m18.667 16.667h-5.333c-.368 0-.667-.299-.667-.667s.299-.667.667-.667h5.333c.368 0 .667.299.667.667s-.299.667-.667.667z"/><path d="m18.667 14h-5.333c-.368 0-.667-.299-.667-.667s.299-.667.667-.667h5.333c.368 0 .667.299.667.667s-.299.667-.667.667z"/></g></svg>