<svg enable-background="new 0 0 32 32" height="512" viewBox="0 0 32 32" width="512" xmlns="http://www.w3.org/2000/svg"><path d="m26.042 32.042h-20c-3.314 0-6-2.686-6-6v-20c0-3.314 2.686-6 6-6h20c3.314 0 6 2.686 6 6v20c0 3.313-2.687 6-6 6z" fill="#ffe6e2"/><path d="m19.587 8.667c-1.443 0-2.771.698-3.587 1.836-.816-1.137-2.144-1.836-3.587-1.836-2.433 0-4.413 1.976-4.413 4.404 0 4.321 6.596 9.473 7.189 9.927.212.214.504.335.811.335s.599-.121.811-.335c.593-.454 7.189-5.606 7.189-9.927 0-2.428-1.98-4.404-4.413-4.404z" fill="#fc573b"/></svg>