<svg enable-background="new 0 0 32 32" height="512" viewBox="0 0 32 32" width="512" xmlns="http://www.w3.org/2000/svg"><path d="m26 32h-20c-3.314 0-6-2.686-6-6v-20c0-3.314 2.686-6 6-6h20c3.314 0 6 2.686 6 6v20c0 3.314-2.686 6-6 6z" fill="#f5e6fe"/><path d="m23.75 15.237-1.75-1.72v-4.35c0-.276-.224-.5-.5-.5h-2.333c-.276 0-.5.224-.5.5v1.112l-2.328-2.146c-.194-.179-.494-.176-.685.007l-7.408 7.1c-.156.156-.246.373-.246.593 0 .46.374.833.833.833h1.167v6.334c0 .552.448 1 1 1h2.833c.276 0 .5-.224.5-.5v-4.5c0-.092.075-.167.167-.167h3c.092 0 .167.075.167.167v4.5c0 .276.224.5.5.5h2.833c.552 0 1-.448 1-1v-6.333h1.167c.46 0 .833-.374.833-.833 0-.221-.09-.438-.25-.597z" fill="#be63f9"/><path d="m14 24h4v-4.333c0-.552-.448-1-1-1h-2c-.552 0-1 .448-1 1z" fill="#d9a4fc"/></svg>