<svg enable-background="new 0 0 32 32" height="512" viewBox="0 0 32 32" width="512" xmlns="http://www.w3.org/2000/svg"><path d="m26 32h-20c-3.314 0-6-2.686-6-6v-20c0-3.314 2.686-6 6-6h20c3.314 0 6 2.686 6 6v20c0 3.314-2.686 6-6 6z" fill="#ffe6e2"/><path d="m23.746 15.232-7.4-7.093c-.193-.185-.499-.185-.692 0l-7.408 7.101c-.156.156-.246.373-.246.593 0 .46.374.833.833.833h1.167v6c0 .737.597 1.334 1.333 1.334h9.333c.737 0 1.334-.597 1.334-1.333v-6h1.167c.46 0 .833-.374.833-.833 0-.221-.09-.438-.254-.602z" fill="#fc573b"/></svg>