<svg enable-background="new 0 0 32 32" height="512" viewBox="0 0 32 32" width="512" xmlns="http://www.w3.org/2000/svg"><path d="m26 32h-20c-3.314 0-6-2.686-6-6v-20c0-3.314 2.686-6 6-6h20c3.314 0 6 2.686 6 6v20c0 3.314-2.686 6-6 6z" fill="#fff9dd"/><path d="m23.75 15.237-1.75-1.72v-4.35c0-.276-.224-.5-.5-.5h-2.333c-.276 0-.5.224-.5.5v1.112l-2.328-2.146c-.194-.179-.494-.176-.685.007l-7.408 7.1c-.156.156-.246.373-.246.593 0 .46.374.833.833.833h1.167v6c0 .737.597 1.334 1.333 1.334h9.333c.737 0 1.334-.597 1.334-1.333v-6h1.167c.46 0 .833-.374.833-.833 0-.221-.09-.438-.25-.597z" fill="#ffd200"/></svg>