<svg enable-background="new 0 0 32 32" height="512" viewBox="0 0 32 32" width="512" xmlns="http://www.w3.org/2000/svg"><path d="m26 32h-20c-3.314 0-6-2.686-6-6v-20c0-3.314 2.686-6 6-6h20c3.314 0 6 2.686 6 6v20c0 3.314-2.686 6-6 6z" fill="#e3f8fa"/><path d="m22.305 9.695c-.26-.26-.682-.26-.943 0l-4.862 4.862-1.529-1.529c-.191-.191-.477-.249-.727-.145-.249.103-.411.346-.411.616v4c0 .368.299.667.667.667h4c.27 0 .513-.162.616-.411s.046-.536-.145-.727l-1.528-1.528 4.862-4.862c.26-.26.26-.682 0-.943z" fill="#26c6da"/><path d="m19.833 23.5h-9.333c-1.103 0-2-.897-2-2v-9.333c0-1.103.897-2 2-2h5.333c.368 0 .667.298.667.667 0 .368-.299.667-.667.667h-5.333c-.368 0-.667.299-.667.667v9.332c0 .368.299.667.667.667h9.333c.368 0 .667-.299.667-.667v-5.333c0-.368.299-.667.667-.667s.667.298.667.667v5.333c-.001 1.103-.898 2-2.001 2z" fill="#8ce1eb"/></svg>