<svg enable-background="new 0 0 32 32" height="512" viewBox="0 0 32 32" width="512" xmlns="http://www.w3.org/2000/svg"><path d="m26 32h-20c-3.314 0-6-2.686-6-6v-20c0-3.314 2.686-6 6-6h20c3.314 0 6 2.686 6 6v20c0 3.314-2.686 6-6 6z" fill="#ffe6e2"/><path d="m10.34 10.34c-3.121 3.121-3.121 8.198 0 11.319s8.198 3.121 11.319 0 3.121-8.198 0-11.319-8.198-3.12-11.319 0zm7.782 7.782c-1.17 1.17-3.074 1.17-4.245 0s-1.17-3.074 0-4.245 3.074-1.17 4.245 0 1.171 3.075 0 4.245zm-7.074 2.83c-.09-.09-.175-.182-.258-.276-.232-.264-.219-.662.03-.911l1.18-1.18c.131-.131.311-.202.497-.195s.36.091.481.231c.061.071.125.14.192.208s.137.131.208.192c.141.121.225.295.232.481s-.064.367-.195.498l-1.18 1.18c-.248.248-.647.262-.911.03-.094-.082-.186-.168-.276-.258zm7.574-7.974c-.141-.121-.225-.295-.232-.481s.064-.366.195-.497l1.18-1.18c.248-.248.647-.262.911-.03.094.083.186.168.276.258s.175.182.258.276c.232.264.219.662-.03.911l-1.18 1.18c-.131.131-.311.202-.497.195s-.36-.091-.481-.231c-.061-.071-.125-.14-.192-.208s-.137-.132-.208-.193zm-7.298-2.188c.264-.232.662-.219.911.03l1.18 1.18c.131.131.202.311.195.497s-.091.36-.231.481c-.071.061-.14.125-.208.192s-.131.137-.192.208c-.121.141-.295.225-.481.232s-.367-.064-.498-.195l-1.18-1.18c-.248-.248-.262-.647-.03-.911.083-.094.168-.186.258-.276s.182-.176.276-.258zm9.352 10.42c-.264.232-.662.219-.911-.03l-1.18-1.18c-.131-.131-.202-.311-.195-.497s.091-.36.231-.481c.071-.061.14-.125.208-.192s.131-.137.192-.208c.121-.141.295-.225.481-.232s.366.064.497.195l1.18 1.18c.248.248.262.647.03.911-.083.094-.168.186-.258.276s-.181.176-.275.258z" fill="#fc573b"/></svg>