<svg enable-background="new 0 0 32 32" height="512" viewBox="0 0 32 32" width="512" xmlns="http://www.w3.org/2000/svg"><path d="m26 32h-20c-3.314 0-6-2.686-6-6v-20c0-3.314 2.686-6 6-6h20c3.314 0 6 2.686 6 6v20c0 3.314-2.686 6-6 6z" fill="#ffe6e2"/><path d="m22 8h-12c-1.103 0-2 .897-2 2v12c0 1.103.897 2 2 2h12c1.103 0 2-.897 2-2v-12c0-1.103-.897-2-2-2zm.667 14c0 .368-.298.667-.667.667h-8v-3.667c0-.552-.448-1-1-1h-3.667v-8c0-.368.298-.667.667-.667h12c.368 0 .667.298.667.667z" fill="#fc573b"/><path d="m21.138 10.862c-.26-.26-.682-.26-.943 0l-2.862 2.862-1.529-1.529c-.191-.191-.477-.247-.727-.145-.249.103-.411.346-.411.616v4c0 .368.298.667.667.667h4c.27 0 .513-.162.616-.411.104-.249.046-.536-.145-.727l-1.529-1.529 2.862-2.862c.261-.26.261-.682.001-.942z" fill="#fd907e"/></svg>