<svg enable-background="new 0 0 32 32" height="512" viewBox="0 0 32 32" width="512" xmlns="http://www.w3.org/2000/svg"><path d="m26 32h-20c-3.314 0-6-2.686-6-6v-20c0-3.314 2.686-6 6-6h20c3.314 0 6 2.686 6 6v20c0 3.314-2.686 6-6 6z" fill="#fff9dd"/><path d="m17.353 11.352-8.469 8.468c-.043.043-.073.096-.088.155l-.939 3.767c-.028.114.005.234.088.316.063.063.148.098.236.098.027 0 .054-.003.081-.01l3.767-.939c.059-.015.112-.045.155-.088l8.468-8.468z" fill="#ffd200"/><path d="m22.75 10.197-.943-.943c-.63-.63-1.728-.629-2.357 0l-1.155 1.155 3.3 3.3 1.155-1.155c.315-.315.488-.733.488-1.179 0-.445-.173-.863-.488-1.178z" fill="#ffe777"/></svg>