<svg enable-background="new 0 0 32 32" height="512" viewBox="0 0 32 32" width="512" xmlns="http://www.w3.org/2000/svg"><path d="m26 32h-20c-3.314 0-6-2.686-6-6v-20c0-3.314 2.686-6 6-6h20c3.314 0 6 2.686 6 6v20c0 3.314-2.686 6-6 6z" fill="#ffe6e2"/><path d="m18.833 8c-2.849 0-5.167 2.318-5.167 5.167s2.318 5.167 5.167 5.167 5.167-2.318 5.167-5.167-2.318-5.167-5.167-5.167zm0 3c-1.195 0-2.167.972-2.167 2.167 0 .276-.224.5-.5.5s-.5-.224-.5-.5c0-1.746 1.421-3.167 3.167-3.167.276 0 .5.224.5.5s-.224.5-.5.5z" fill="#fc573b"/><path d="m13.793 17.264-5.598 5.598c-.26.26-.26.682 0 .943.131.13.301.195.472.195s.341-.065.471-.195l5.598-5.598c-.345-.282-.661-.598-.943-.943z" fill="#fd907e"/></svg>