<svg enable-background="new 0 0 32 32" height="512" viewBox="0 0 32 32" width="512" xmlns="http://www.w3.org/2000/svg"><path d="m26 32h-20c-3.314 0-6-2.686-6-6v-20c0-3.314 2.686-6 6-6h20c3.314 0 6 2.686 6 6v20c0 3.314-2.686 6-6 6z" fill="#e3f8fa"/><path d="m16 8c-4.411 0-8 3.589-8 8s3.589 8 8 8 8-3.589 8-8-3.589-8-8-8zm3.5 8.667h-2.833v2.833c0 .368-.299.667-.667.667s-.667-.299-.667-.667v-2.833h-2.833c-.368 0-.667-.299-.667-.667s.299-.667.667-.667h2.833v-2.833c0-.368.299-.667.667-.667s.667.299.667.667v2.833h2.833c.368 0 .667.299.667.667s-.299.667-.667.667z" fill="#26c6da"/></svg>