<svg enable-background="new 0 0 32 32" height="512" viewBox="0 0 32 32" width="512" xmlns="http://www.w3.org/2000/svg"><path d="m26 32h-20c-3.314 0-6-2.686-6-6v-20c0-3.314 2.686-6 6-6h20c3.314 0 6 2.686 6 6v20c0 3.314-2.686 6-6 6z" fill="#f5e6fe"/><path d="m19.333 8h-6.667c-1.105 0-2 .895-2 2v2.667c0 .368.298.667.667.667s.667-.299.667-.667v-2.667c0-.368.298-.667.667-.667h6.733c.331 0 .6.269.6.6v2.733c0 .368.298.667.667.667s.667-.299.667-.667v-2.666c-.001-1.105-.896-2-2.001-2z" fill="#d9a4fc"/><path d="m19.609 10.719-.995-.995c-.248-.248-.592-.391-.943-.391h-5.005c-.367 0-.666.299-.666.667v2h8v-.338c0-.351-.143-.695-.391-.943z" fill="none"/><path d="m22.167 12h-.833-1.334-8-1.333-.834c-1.013 0-1.833.82-1.833 1.833v4.333c0 1.014.82 1.834 1.833 1.834h.833v-2.667c0-.367.3-.667.667-.667h9.333c.367 0 .667.3.667.667v2.667h.833c1.014 0 1.834-.82 1.834-1.833v-4.333c0-1.014-.82-1.834-1.833-1.834z" fill="#be63f9"/><path d="m20.667 16.667h-9.333c-.367 0-.667.3-.667.667v2.666 2c0 .447.153.873.407 1.207l2.573-2.56c.187-.187.52-.187.707 0l.933.933 1.673-1.907c.093-.113.227-.173.373-.173s.28.06.373.173l3.16 3.607c.293-.347.467-.8.467-1.28v-2-2.667c0-.366-.3-.666-.666-.666z" fill="#d9a4fc"/><path d="m17.333 19.5c-.147 0-.28.06-.373.173l-1.673 1.907-.933-.933c-.187-.187-.52-.187-.707 0l-2.573 2.56c.366.48.946.793 1.593.793h6.667c.613 0 1.167-.28 1.533-.72l-3.16-3.607c-.094-.113-.227-.173-.374-.173z" fill="#be63f9"/></svg>