<svg enable-background="new 0 0 32 32" height="512" viewBox="0 0 32 32" width="512" xmlns="http://www.w3.org/2000/svg"><path d="m26 32h-20c-3.314 0-6-2.686-6-6v-20c0-3.314 2.686-6 6-6h20c3.314 0 6 2.686 6 6v20c0 3.314-2.686 6-6 6z" fill="#e3f8fa"/><path d="m19.333 8h-6.667c-1.105 0-2 .895-2 2v2.667c0 .368.298.667.667.667s.667-.299.667-.667v-2.667c0-.368.298-.667.667-.667h6.733c.331 0 .6.269.6.6v2.733c0 .368.298.667.667.667s.667-.299.667-.667v-2.666c-.001-1.105-.896-2-2.001-2z" fill="#8ce1eb"/><path d="m22.167 12h-12.334c-1.013 0-1.833.82-1.833 1.833v4.333c0 1.014.82 1.834 1.833 1.834h2.167v-2h8v2h2.167c1.013 0 1.833-.82 1.833-1.833v-4.333c0-1.014-.82-1.834-1.833-1.834z" fill="#26c6da"/><path d="m19.333 24h-6.667c-1.103 0-2-.897-2-2v-4.667c0-.368.298-.667.667-.667h9.333c.368 0 .667.299.667.667v4.667c0 1.103-.897 2-2 2z" fill="#8ce1eb"/><g fill="#26c6da"><path d="m18.167 20h-4.333c-.276 0-.5-.224-.5-.5s.224-.5.5-.5h4.333c.276 0 .5.224.5.5s-.224.5-.5.5z"/><path d="m18.167 22h-4.333c-.276 0-.5-.224-.5-.5s.224-.5.5-.5h4.333c.276 0 .5.224.5.5s-.224.5-.5.5z"/></g></svg>