<svg enable-background="new 0 0 32 32" height="512" viewBox="0 0 32 32" width="512" xmlns="http://www.w3.org/2000/svg"><path d="m26 32h-20c-3.314 0-6-2.686-6-6v-20c0-3.314 2.686-6 6-6h20c3.314 0 6 2.686 6 6v20c0 3.314-2.686 6-6 6z" fill="#ffe6e2"/><path d="m16 8c-4.411 0-8 3.589-8 8s3.589 8 8 8 8-3.589 8-8-3.589-8-8-8zm0 12.667c-.368 0-.667-.298-.667-.667 0-.368.298-.667.667-.667.368 0 .667.298.667.667 0 .368-.299.667-.667.667zm1.055-4.239c-.236.109-.389.347-.389.606v.299c.001.369-.298.667-.666.667s-.667-.299-.667-.667v-.299c0-.778.457-1.491 1.163-1.817.679-.313 1.17-1.143 1.17-1.55.001-.919-.747-1.667-1.666-1.667s-1.667.748-1.667 1.667c0 .368-.298.667-.667.667-.368 0-.667-.299-.667-.667 0-1.654 1.346-3 3-3s3 1.346 3 3c.001.9-.78 2.225-1.944 2.761z" fill="#fc573b"/></svg>