<svg enable-background="new 0 0 32 32" height="512" viewBox="0 0 32 32" width="512" xmlns="http://www.w3.org/2000/svg"><path d="m26 32h-20c-3.314 0-6-2.686-6-6v-20c0-3.314 2.686-6 6-6h20c3.314 0 6 2.686 6 6v20c0 3.314-2.686 6-6 6z" fill="#ffe6e2"/><path d="m22.807 12.436-3.222-3.221c-.346-.347-.806-.537-1.296-.537h-4.557c-.49 0-.951.191-1.296.537l-3.222 3.222c-.346.346-.537.807-.537 1.296v4.557c0 .49.191.95.537 1.296l3.222 3.222c.346.346.807.537 1.296.537h4.557c.49 0 .95-.191 1.296-.537l3.222-3.222c.346-.346.536-.806.536-1.296v-4.557c0-.491-.191-.951-.536-1.297zm-3.858 5.571c.26.26.26.683 0 .943-.13.13-.301.195-.471.195s-.341-.065-.471-.195l-2.003-2.004-2.004 2.004c-.13.13-.301.195-.471.195-.171 0-.341-.065-.471-.195-.26-.26-.26-.682 0-.943l2.003-2.004-2.004-2.003c-.26-.26-.26-.683 0-.943s.682-.26.943 0l2.003 2.004 2.003-2.004c.26-.26.682-.26.943 0 .26.26.26.682 0 .943l-2.003 2.004z" fill="#fc573b"/></svg>