<svg enable-background="new 0 0 32 32" height="512" viewBox="0 0 32 32" width="512" xmlns="http://www.w3.org/2000/svg"><path d="m26 32h-20c-3.314 0-6-2.686-6-6v-20c0-3.314 2.686-6 6-6h20c3.314 0 6 2.686 6 6v20c0 3.314-2.686 6-6 6z" fill="#ffe6e2"/><path d="m22.167 8h-12.334c-1.011 0-1.833.822-1.833 1.833v12.333c0 1.012.822 1.834 1.833 1.834h12.333c1.012 0 1.834-.822 1.834-1.833v-12.334c0-1.011-.822-1.833-1.833-1.833zm-3.221 10.004c.26.26.26.683 0 .943-.13.13-.301.195-.471.195-.171 0-.341-.065-.471-.195l-2.004-2.004-2.003 2.004c-.13.13-.301.195-.471.195s-.341-.065-.471-.195c-.26-.26-.26-.682 0-.943l2.002-2.004-2.003-2.004c-.26-.26-.26-.683 0-.943s.682-.26.943 0l2.003 2.004 2.003-2.004c.26-.26.682-.26.943 0 .26.26.26.682 0 .943l-2.003 2.004z" fill="#fc573b"/></svg>