<svg enable-background="new 0 0 32 32" height="512" viewBox="0 0 32 32" width="512" xmlns="http://www.w3.org/2000/svg"><path d="m26 32h-20c-3.314 0-6-2.686-6-6v-20c0-3.314 2.686-6 6-6h20c3.314 0 6 2.686 6 6v20c0 3.314-2.686 6-6 6z" fill="#ffe6e2"/><path d="m22 24h-12c-1.103 0-2-.897-2-2v-5.333c0-.369.298-.667.667-.667.368 0 .667.298.667.667v5.333c0 .368.299.667.667.667h12c.368 0 .667-.299.667-.667v-9.333c-.001-.368-.3-.667-.668-.667h-2c-.368 0-.667-.298-.667-.667s.298-.667.667-.667h2c1.103 0 2 .897 2 2v9.334c0 1.103-.897 2-2 2z" fill="#fd907e"/><path d="m13.5 10.667h-.167v-2.167c0-.204-.124-.387-.313-.464s-.406-.031-.547.117l-4.333 4.5c-.187.194-.187.5 0 .694l4.333 4.5c.141.147.359.194.547.117.189-.076.313-.26.313-.464v-2.167h.792c2.097 0 3.982 1.165 4.919 3.04l.008.017c.086.173.261.277.447.277.038 0 .077-.005.115-.014.226-.053.386-.255.386-.486v-1c0-3.584-2.916-6.5-6.5-6.5z" fill="#fc573b"/></svg>