<svg enable-background="new 0 0 32 32" height="512" viewBox="0 0 32 32" width="512" xmlns="http://www.w3.org/2000/svg"><path d="m26 32h-20c-3.314 0-6-2.686-6-6v-20c0-3.314 2.686-6 6-6h20c3.314 0 6 2.686 6 6v20c0 3.314-2.686 6-6 6z" fill="#fff9dd"/><path d="m23.86 12.653-4.333-4.5c-.141-.146-.358-.193-.547-.117s-.313.26-.313.464v2.167h-.167c-3.584 0-6.5 2.916-6.5 6.5v1c0 .232.163.425.389.478.036.009.074.013.11.013.189 0 .369-.111.456-.285.938-1.875 2.822-3.04 4.919-3.04h.792v2.167c0 .204.124.387.313.464.188.076.406.03.547-.117l4.333-4.5c.188-.194.188-.5.001-.694z" fill="#ffd200"/><path d="m22 24h-12c-1.103 0-2-.897-2-2v-9.333c0-1.103.897-2 2-2h2c.368 0 .667.298.667.667 0 .368-.298.666-.667.666h-2c-.368 0-.667.299-.667.667v9.333c0 .368.299.667.667.667h12c.368 0 .667-.299.667-.667v-5.333c0-.368.298-.667.667-.667.368 0 .666.298.666.667v5.333c0 1.103-.897 2-2 2z" fill="#ffe777"/></svg>