<svg enable-background="new 0 0 32 32" height="512" viewBox="0 0 32 32" width="512" xmlns="http://www.w3.org/2000/svg"><path d="m26 32h-20c-3.314 0-6-2.686-6-6v-20c0-3.314 2.686-6 6-6h20c3.314 0 6 2.686 6 6v20c0 3.314-2.686 6-6 6z" fill="#f5e6fe"/><path d="m16 13.994c-1.103 0-2 .897-2 2 0 .868.559 1.601 1.333 1.877v5.456c0 .368.299.667.667.667s.667-.299.667-.667v-5.456c.774-.276 1.333-1.009 1.333-1.877 0-1.103-.897-2-2-2z" fill="#d9a4fc"/><g fill="#be63f9"><path d="m16 7.969c-4.411 0-8 3.589-8 8 0 2.14.834 4.148 2.347 5.655.262.26.684.259.943-.002.26-.261.258-.683-.002-.943-1.261-1.254-1.955-2.927-1.955-4.71 0-3.676 2.991-6.667 6.667-6.667s6.667 2.991 6.667 6.667c0 1.783-.694 3.455-1.955 4.71-.261.26-.262.682-.002.943.131.131.301.196.473.196.17 0 .34-.065.47-.194 1.513-1.506 2.347-3.514 2.347-5.655 0-4.411-3.589-8-8-8z"/><path d="m16 10.636c-2.941 0-5.333 2.393-5.333 5.333 0 1.427.557 2.765 1.568 3.769.261.258.683.257.943-.004.259-.261.257-.684-.004-.943-.757-.751-1.174-1.753-1.174-2.822 0-2.206 1.794-4 4-4s4 1.794 4 4c0 1.069-.417 2.071-1.174 2.822-.261.259-.263.682-.004.943.131.131.302.197.473.197.17 0 .34-.064.47-.193 1.011-1.004 1.568-2.342 1.568-3.769 0-2.94-2.392-5.333-5.333-5.333z"/></g></svg>