<svg enable-background="new 0 0 32 32" height="512" viewBox="0 0 32 32" width="512" xmlns="http://www.w3.org/2000/svg"><path d="m26 32h-20c-3.314 0-6-2.686-6-6v-20c0-3.314 2.686-6 6-6h20c3.314 0 6 2.686 6 6v20c0 3.314-2.686 6-6 6z" fill="#fff9dd"/><path d="m23.958 14.127c-.105-.324-.393-.553-.731-.584l-4.619-.42-1.826-4.273c-.134-.314-.441-.517-.782-.517s-.648.203-.782.517l-1.826 4.273-4.619.42c-.339.031-.626.26-.731.584s-.008.679.248.904l3.492 3.061-1.03 4.534c-.076.333.054.678.33.878.148.108.323.162.499.162.15 0 .301-.04.436-.121l3.983-2.381 3.982 2.381c.292.174.659.159.935-.041s.406-.545.33-.878l-1.03-4.534 3.492-3.062c.257-.224.354-.579.249-.903z" fill="#ffd200"/></svg>