<svg enable-background="new 0 0 32 32" height="512" viewBox="0 0 32 32" width="512" xmlns="http://www.w3.org/2000/svg"><path d="m26 32h-20c-3.314 0-6-2.686-6-6v-20c0-3.314 2.686-6 6-6h20c3.314 0 6 2.686 6 6v20c0 3.314-2.686 6-6 6z" fill="#e3f8fa"/><path d="m22 8h-12c-1.105 0-2 .895-2 2v12c0 1.105.895 2 2 2h12c1.105 0 2-.895 2-2v-12c0-1.105-.895-2-2-2z" fill="#26c6da"/><path d="m18.667 18c0 .368-.298.667-.667.667h-4c-.368 0-.667-.298-.667-.667v-4c0-.368.298-.667.667-.667h4c.368 0 .667.298.667.667z" fill="#8ce1eb"/></svg>