<svg enable-background="new 0 0 32 32" height="512" viewBox="0 0 32 32" width="512" xmlns="http://www.w3.org/2000/svg"><path d="m26 32h-20c-3.314 0-6-2.686-6-6v-20c0-3.314 2.686-6 6-6h20c3.314 0 6 2.686 6 6v20c0 3.314-2.686 6-6 6z" fill="#e3f8fa"/><path d="m9.833 15.292v7.773c0 .4-.3.727-.667.727s-.667-.327-.667-.727v-7.773z" fill="#26c6da"/><path d="m21.333 10.625h-2.167v4.833c0 1.379-1.122 2.5-2.5 2.5h-3.166v.167c0 .643.523 1.167 1.167 1.167h6.667c.643 0 1.167-.523 1.167-1.167v-6.333c-.001-.644-.524-1.167-1.168-1.167z" fill="#8ce1eb"/><path d="m16.667 7.958h-7.5c-.369 0-.667.299-.667.667v7.333c0 .368.298.667.667.667h.667 6.833c.644 0 1.167-.522 1.167-1.167v-6.333c-.001-.644-.523-1.167-1.167-1.167z" fill="#26c6da"/></svg>